<svg xmlns="http://www.w3.org/2000/svg" width="88.001" height="81" viewBox="0 0 88.001 81">
  <path id="Union_119" data-name="Union 119" d="M23.834,81a1.762,1.762,0,1,1,0-3.521H33V66.911H5.5A5.4,5.4,0,0,1,0,61.63V5.282A5.4,5.4,0,0,1,5.5,0h77A5.4,5.4,0,0,1,88,5.282V61.63a5.4,5.4,0,0,1-5.5,5.282H55V77.479h9.166a1.762,1.762,0,1,1,0,3.521Zm12.833-3.521H51.334V66.915H36.667Zm-33-15.85A1.8,1.8,0,0,0,5.5,63.39h77a1.8,1.8,0,0,0,1.832-1.761V56.348H3.667Zm80.666-8.8V5.282A1.8,1.8,0,0,0,82.5,3.521H5.5A1.8,1.8,0,0,0,3.667,5.282V52.826Z" fill="#1286c8"/>
</svg>
