<svg id="MicromedStoreLogo-02" xmlns="http://www.w3.org/2000/svg" xmlns:xlink="http://www.w3.org/1999/xlink" width="540" height="79.435" viewBox="0 0 540 79.435">
  <defs>
    <linearGradient id="linear-gradient" x1="0.5" x2="0.5" y2="1" gradientUnits="objectBoundingBox">
      <stop offset="0" stop-color="#15aacc"/>
      <stop offset="1" stop-color="#1286c8"/>
    </linearGradient>
    <linearGradient id="linear-gradient-2" x1="0.5" x2="0.5" y2="1" gradientUnits="objectBoundingBox">
      <stop offset="0" stop-color="#ff481d"/>
      <stop offset="1" stop-color="#df081b"/>
    </linearGradient>
    <linearGradient id="linear-gradient-3" x1="0.5" y1="0" x2="0.5" y2="1" xlink:href="#linear-gradient"/>
    <linearGradient id="linear-gradient-4" x1="0.5" x2="0.5" y2="1" gradientUnits="objectBoundingBox">
      <stop offset="0" stop-color="#94172a"/>
      <stop offset="1" stop-color="#6c122b"/>
    </linearGradient>
  </defs>
  <g id="Group_19216" data-name="Group 19216" transform="translate(74.093 30.854)">
    <g id="Group_19213" data-name="Group 19213" transform="translate(459.537 0.382)">
      <path id="Path_30627" data-name="Path 30627" d="M1681.141,104.291a3.476,3.476,0,0,1-1.269-.226,3.078,3.078,0,0,1-1-.639,2.906,2.906,0,0,1-.661-.967,3.025,3.025,0,0,1-.235-1.212,3.058,3.058,0,0,1,.235-1.2,2.893,2.893,0,0,1,.661-.964,3.007,3.007,0,0,1,1-.636,3.411,3.411,0,0,1,1.269-.226,3.525,3.525,0,0,1,1.269.226,3.1,3.1,0,0,1,1.018.636,2.935,2.935,0,0,1,.671.964,3.134,3.134,0,0,1,0,2.414,2.935,2.935,0,0,1-.671.967,3.075,3.075,0,0,1-1.018.639A3.526,3.526,0,0,1,1681.141,104.291Zm0-.439a2.846,2.846,0,0,0,1.371-.331,2.558,2.558,0,0,0,.97-.916,2.669,2.669,0,0,0,.156-2.36,2.567,2.567,0,0,0-1.422-1.38,2.886,2.886,0,0,0-1.075-.2,2.811,2.811,0,0,0-1.065.2,2.542,2.542,0,0,0-.846.55,2.434,2.434,0,0,0-.557.824,2.6,2.6,0,0,0-.194,1.008,2.639,2.639,0,0,0,.194,1.021,2.416,2.416,0,0,0,.557.827,2.7,2.7,0,0,0,1.911.757Zm-1.368-4.462h1.644a1.034,1.034,0,0,1,.611.184,1.334,1.334,0,0,1,.417.467,1.208,1.208,0,0,1,.153.585,1.237,1.237,0,0,1-.321.82,1.047,1.047,0,0,1-.353.248l.868,1.393h-.9l-.776-1.24h-.541v1.24h-.8v-3.7Zm1.577,1.787a.412.412,0,0,0,.334-.146.609.609,0,0,0,.121-.407.547.547,0,0,0-.14-.41.463.463,0,0,0-.334-.134h-.76v1.1Z" transform="translate(-1677.97 -98.22)" fill="#bfbfbf"/>
    </g>
    <g id="Group_19215" data-name="Group 19215">
      <g id="Group_19214" data-name="Group 19214" transform="translate(0 0.502)">
        <path id="Path_30628" data-name="Path 30628" d="M273.846,148.809V110.933l-16.826,29.3h-2.665l-16.826-29.3v37.876H232.98V102.68h4.678l18,31.576,18.127-31.576h4.611v46.129Z" transform="translate(-232.98 -101.382)"/>
        <path id="Path_30629" data-name="Path 30629" d="M404.18,105.1V98.6H408.6v6.5Zm0,40.929v-33.85H408.6v33.85Z" transform="translate(-349.735 -98.6)"/>
        <path id="Path_30630" data-name="Path 30630" d="M436.25,156.865a18.524,18.524,0,0,1,1.234-6.758,16.923,16.923,0,0,1,3.476-5.556,16.269,16.269,0,0,1,5.359-3.737,17,17,0,0,1,6.888-1.364,15.793,15.793,0,0,1,8.38,2.175,14,14,0,0,1,5.394,5.88l-4.287,1.364a10.327,10.327,0,0,0-3.994-4.061,11.783,11.783,0,0,0-10.527-.423,12.353,12.353,0,0,0-3.9,2.827,13.011,13.011,0,0,0-2.6,4.255,15.674,15.674,0,0,0,.032,10.787,13.693,13.693,0,0,0,2.665,4.386,12.643,12.643,0,0,0,3.931,2.923,10.914,10.914,0,0,0,4.777,1.072,11.7,11.7,0,0,0,3.215-.455,12.4,12.4,0,0,0,2.958-1.266,10.57,10.57,0,0,0,2.337-1.851,6.029,6.029,0,0,0,1.364-2.21l4.354,1.3a11.1,11.1,0,0,1-2.08,3.346,14.415,14.415,0,0,1-3.215,2.665,15.873,15.873,0,0,1-4.093,1.755,17.476,17.476,0,0,1-4.646.617,16.445,16.445,0,0,1-12.215-5.228,17.765,17.765,0,0,1-3.54-5.619A18.273,18.273,0,0,1,436.25,156.865Z" transform="translate(-371.606 -126.459)"/>
        <path id="Path_30631" data-name="Path 30631" d="M567.543,144.773a13.9,13.9,0,0,0-7.8,2.468,12.43,12.43,0,0,0-4.678,6.434v21.05H550.65v-33.85h4.156V149a15.4,15.4,0,0,1,5.066-6.106,11.743,11.743,0,0,1,6.822-2.21,4.678,4.678,0,0,1,.846.064v4.029Z" transform="translate(-449.624 -127.298)"/>
        <path id="Path_30632" data-name="Path 30632" d="M621.353,174.551a16.1,16.1,0,0,1-6.758-1.4,16.619,16.619,0,0,1-5.3-3.8,17.234,17.234,0,0,1-3.476-5.588,18.717,18.717,0,0,1,.032-13.449,17.737,17.737,0,0,1,3.508-5.588,17.009,17.009,0,0,1,5.3-3.832,15.608,15.608,0,0,1,6.691-1.428,15.824,15.824,0,0,1,6.723,1.428,16.991,16.991,0,0,1,5.327,3.832,17.681,17.681,0,0,1,3.508,5.588,18.079,18.079,0,0,1,1.266,6.758,18.4,18.4,0,0,1-1.234,6.691,17.269,17.269,0,0,1-3.476,5.588,16.509,16.509,0,0,1-5.327,3.8A16.269,16.269,0,0,1,621.353,174.551Zm-12.279-17.415a14.153,14.153,0,0,0,.973,5.3,14.347,14.347,0,0,0,2.63,4.287,11.894,11.894,0,0,0,3.9,2.891,11.209,11.209,0,0,0,4.777,1.04,10.924,10.924,0,0,0,4.777-1.072,12.692,12.692,0,0,0,3.931-2.923,13.966,13.966,0,0,0,2.665-4.322,14.98,14.98,0,0,0,0-10.622,13.843,13.843,0,0,0-2.665-4.354,12.642,12.642,0,0,0-3.931-2.923,10.914,10.914,0,0,0-4.777-1.072,10.7,10.7,0,0,0-4.742,1.072,12.59,12.59,0,0,0-3.9,2.958,14.317,14.317,0,0,0-2.665,4.386A14.644,14.644,0,0,0,609.074,157.136Z" transform="translate(-486.41 -126.472)"/>
        <path id="Path_30633" data-name="Path 30633" d="M778.756,173.892h-4.417V154.986q0-5.91-1.883-8.707a6.305,6.305,0,0,0-5.588-2.792,9.449,9.449,0,0,0-3.67.716,11.3,11.3,0,0,0-3.183,2.013,13.871,13.871,0,0,0-2.566,3.085,14.8,14.8,0,0,0-1.689,3.931v20.662h-4.417V154.986q0-6.044-1.819-8.771a6.248,6.248,0,0,0-5.588-2.729,9.95,9.95,0,0,0-6.822,2.665,14.823,14.823,0,0,0-4.287,7.016v20.725H728.41v-33.85h4.029v7.667a16.009,16.009,0,0,1,5.457-6.074,13.512,13.512,0,0,1,7.47-2.175,9.618,9.618,0,0,1,6.853,2.4,10.469,10.469,0,0,1,3.152,6.3q4.742-8.706,13.058-8.707a10.321,10.321,0,0,1,4.84,1.04,8.2,8.2,0,0,1,3.183,2.958,13.862,13.862,0,0,1,1.755,4.611,29.979,29.979,0,0,1,.553,6.011v19.813Z" transform="translate(-570.853 -126.466)"/>
        <path id="Path_30634" data-name="Path 30634" d="M920.634,174.551a16.32,16.32,0,0,1-6.79-1.4,16.647,16.647,0,0,1-5.359-3.832,17.764,17.764,0,0,1-3.54-5.619,18.242,18.242,0,0,1-1.266-6.822,17.877,17.877,0,0,1,1.266-6.723,17.477,17.477,0,0,1,3.508-5.524,16.689,16.689,0,0,1,5.359-3.769,17.131,17.131,0,0,1,13.548,0,16.14,16.14,0,0,1,5.3,3.8,17.845,17.845,0,0,1,4.678,12.152v1.04a2.723,2.723,0,0,1-.064.716H908.291a14.292,14.292,0,0,0,1.266,5.034,13.831,13.831,0,0,0,2.76,3.994,12.322,12.322,0,0,0,3.867,2.63,11.537,11.537,0,0,0,4.646.941,12.032,12.032,0,0,0,3.247-.455,13.181,13.181,0,0,0,2.989-1.234,10.976,10.976,0,0,0,2.468-1.918,8.219,8.219,0,0,0,1.689-2.5l3.832,1.04a11.214,11.214,0,0,1-2.21,3.412,15.521,15.521,0,0,1-3.314,2.665,16.365,16.365,0,0,1-4.156,1.755A18.185,18.185,0,0,1,920.634,174.551ZM933.11,155.19a13.729,13.729,0,0,0-1.266-4.971,13.59,13.59,0,0,0-2.729-3.867,12.108,12.108,0,0,0-3.832-2.535,11.9,11.9,0,0,0-4.646-.91,12.14,12.14,0,0,0-4.678.91,12,12,0,0,0-3.867,2.535,12.474,12.474,0,0,0-2.665,3.9,14.772,14.772,0,0,0-1.2,4.939Z" transform="translate(-690.383 -126.472)"/>
        <path id="Path_30635" data-name="Path 30635" d="M1041,146.678a14.564,14.564,0,0,1-6.5-1.463,16.518,16.518,0,0,1-5.133-3.867,17.8,17.8,0,0,1-3.345-5.556,18.34,18.34,0,0,1-1.2-6.6,19.724,19.724,0,0,1,1.17-6.79,18.135,18.135,0,0,1,3.215-5.619,15.168,15.168,0,0,1,4.872-3.8,13.8,13.8,0,0,1,6.2-1.4,13.236,13.236,0,0,1,7.6,2.242,16.966,16.966,0,0,1,5.2,5.425V98.6h4.417v41.712q0,1.818,1.558,1.819v3.9a8.331,8.331,0,0,1-1.558.194,4.038,4.038,0,0,1-2.729-1.008,3.105,3.105,0,0,1-1.17-2.436v-3.314a14.794,14.794,0,0,1-5.457,5.263A14.319,14.319,0,0,1,1041,146.678Zm.973-3.9a10.543,10.543,0,0,0,3.476-.649,14.221,14.221,0,0,0,3.476-1.787,11.894,11.894,0,0,0,2.76-2.665,7.2,7.2,0,0,0,1.4-3.282v-10.46a11.646,11.646,0,0,0-1.883-3.282,15.156,15.156,0,0,0-2.827-2.7,13.267,13.267,0,0,0-3.412-1.819,10.592,10.592,0,0,0-3.574-.649,10.4,10.4,0,0,0-4.939,1.17,12.489,12.489,0,0,0-3.8,3.085,13.777,13.777,0,0,0-2.436,4.385,15.571,15.571,0,0,0-.846,5.069,14.032,14.032,0,0,0,.973,5.2,13.887,13.887,0,0,0,2.665,4.322,12.929,12.929,0,0,0,3.994,2.958A11.42,11.42,0,0,0,1041.971,142.78Z" transform="translate(-772.998 -98.6)"/>
      </g>
      <path id="Path_30636" data-name="Path 30636" d="M1201.864,109.744a11.5,11.5,0,0,0-1.7-1.266,18.933,18.933,0,0,0-3-1.533,32.3,32.3,0,0,0-3.829-1.3,15.893,15.893,0,0,0-4.195-.566,9.467,9.467,0,0,0-5.629,1.393,4.569,4.569,0,0,0-1.9,3.908,3.988,3.988,0,0,0,1.2,3.05,9.65,9.65,0,0,0,3.6,1.921q2.4.8,5.995,1.724a42.239,42.239,0,0,1,8.094,2.751,13.03,13.03,0,0,1,5.26,4.242,11.85,11.85,0,0,1,1.832,6.923,13.84,13.84,0,0,1-1.4,6.462,11.57,11.57,0,0,1-3.864,4.341,17.227,17.227,0,0,1-5.594,2.42,28.2,28.2,0,0,1-6.659.76,34.787,34.787,0,0,1-7.06-.731,36.731,36.731,0,0,1-6.793-2.1,31.187,31.187,0,0,1-5.995-3.3l4.064-7.925a13.119,13.119,0,0,0,2.131,1.565,28.242,28.242,0,0,0,3.73,1.93,30.719,30.719,0,0,0,4.8,1.631,21.049,21.049,0,0,0,5.26.665,10.485,10.485,0,0,0,5.661-1.25,4.293,4.293,0,0,0,.4-6.872,14.167,14.167,0,0,0-4.261-2.089q-2.733-.9-6.459-1.956a39.655,39.655,0,0,1-7.461-2.821,11.022,11.022,0,0,1-4.462-3.947,11.229,11.229,0,0,1-1.466-5.969,13.838,13.838,0,0,1,2.3-8.125,14.334,14.334,0,0,1,6.227-4.974,21.824,21.824,0,0,1,8.726-1.692,26.242,26.242,0,0,1,6.294.731,31.232,31.232,0,0,1,5.562,1.93,32.745,32.745,0,0,1,4.662,2.6Zm31.9,33.17c-.757.312-1.666.665-2.732,1.065a22.115,22.115,0,0,1-3.428.967,18.773,18.773,0,0,1-3.7.366,11.677,11.677,0,0,1-4.529-.859,7.132,7.132,0,0,1-3.3-2.738,8.809,8.809,0,0,1-1.234-4.917v-19.86h-4.6v-6.86h4.6V98.756h8.927v11.322h7.327v6.86h-7.327v16.83a3.362,3.362,0,0,0,1,2.563,3.472,3.472,0,0,0,2.331.789,8.207,8.207,0,0,0,2.732-.467c.887-.308,1.6-.576,2.131-.8Zm20.312,2.4a19.776,19.776,0,0,1-7.658-1.415,16.6,16.6,0,0,1-5.763-3.918,17.609,17.609,0,0,1-3.629-5.731,18.989,18.989,0,0,1,0-13.634,17.661,17.661,0,0,1,3.629-5.731,16.57,16.57,0,0,1,5.763-3.918,21.341,21.341,0,0,1,15.284,0,16.928,16.928,0,0,1,9.388,9.649,19.072,19.072,0,0,1,1.234,6.85,18.8,18.8,0,0,1-1.234,6.783,17.161,17.161,0,0,1-3.6,5.731,16.542,16.542,0,0,1-5.759,3.918A19.764,19.764,0,0,1,1254.08,145.311Zm-9.124-17.854a11.437,11.437,0,0,0,1.2,5.324,9.14,9.14,0,0,0,3.263,3.625,8.53,8.53,0,0,0,4.662,1.307,8.264,8.264,0,0,0,4.6-1.339,9.7,9.7,0,0,0,3.3-3.657,12.033,12.033,0,0,0,0-10.616,9.375,9.375,0,0,0-3.3-3.657,8.76,8.76,0,0,0-9.258.032,9.4,9.4,0,0,0-3.263,3.66A11.386,11.386,0,0,0,1244.956,127.458Zm54.15-9.989a16.3,16.3,0,0,0-7.26,1.565,9.517,9.517,0,0,0-4.6,4.5v21.113h-8.927V110.075h8.192V117.2a15.737,15.737,0,0,1,4.729-5.661,11.456,11.456,0,0,1,6.061-2.264h1.132a2.762,2.762,0,0,1,.665.067v8.125Zm20.713,27.843a19.609,19.609,0,0,1-7.594-1.415,17.184,17.184,0,0,1-5.794-3.886,17.537,17.537,0,0,1-3.7-5.664,17.758,17.758,0,0,1-1.3-6.752,18.52,18.52,0,0,1,2.233-9.025,17.039,17.039,0,0,1,6.392-6.554,18.883,18.883,0,0,1,9.824-2.471,18.5,18.5,0,0,1,9.792,2.474,16.814,16.814,0,0,1,6.227,6.532,18.317,18.317,0,0,1,2.166,8.742c0,.528-.022,1.065-.067,1.616s-.089,1-.134,1.352h-26.975a9.874,9.874,0,0,0,1.565,4.554,8.464,8.464,0,0,0,3.33,2.961,9.7,9.7,0,0,0,4.363,1.008,10.293,10.293,0,0,0,5.028-1.3,6.889,6.889,0,0,0,3.231-3.431l7.658,2.131a14.52,14.52,0,0,1-3.629,4.729,17.4,17.4,0,0,1-5.562,3.231A20.5,20.5,0,0,1,1319.818,145.311Zm-9.124-20.716h18.248a10.191,10.191,0,0,0-1.5-4.525,8.637,8.637,0,0,0-3.231-2.993,9.283,9.283,0,0,0-4.462-1.075,8.951,8.951,0,0,0-4.363,1.075,8.711,8.711,0,0,0-3.2,2.993A10.19,10.19,0,0,0,1310.694,124.6Z" transform="translate(-872.165 -97.02)" fill="url(#linear-gradient)"/>
    </g>
  </g>
  <g id="Group_19217" data-name="Group 19217">
    <path id="Path_30637" data-name="Path 30637" d="M45.69,27.458V13.513h-.01a15.111,15.111,0,0,0-1-4.3,15.282,15.282,0,0,0-2.958-4.745A13.931,13.931,0,0,0,31.335,0a14.114,14.114,0,0,0-5.813,1.205,14.447,14.447,0,0,0-4.608,3.237,15.249,15.249,0,0,0-4.045,9.07V27.458H0V72.649a6.785,6.785,0,0,0,6.787,6.787H38.35V65.49H25.556V55.342H38.35V41.4H49.758V55.342H62.552V27.458ZM42.112,13.513V27.458h-21.4V13.513h0a12.575,12.575,0,0,1,1.037-4.239,10.654,10.654,0,0,1,2.293-3.352,10.306,10.306,0,0,1,3.32-2.178,10.5,10.5,0,0,1,4.023-.779,10.3,10.3,0,0,1,3.991.779,10.53,10.53,0,0,1,3.295,2.178,11.721,11.721,0,0,1,3.435,7.591Z" fill="url(#linear-gradient-2)"/>
    <path id="Path_30638" data-name="Path 30638" d="M169.254,205.92v7.159a6.785,6.785,0,0,1-6.787,6.787H156.46V205.92Z" transform="translate(-106.702 -140.433)" fill="url(#linear-gradient-3)"/>
    <path id="Path_30639" data-name="Path 30639" d="M16.871,42.49V56.435H0V42.49Zm3.845,0V56.435H42.109V42.49Zm24.974,0V56.435H62.552V42.49Z" transform="translate(0 -28.977)" fill="url(#linear-gradient-4)"/>
  </g>
</svg>
